<svg xmlns="http://www.w3.org/2000/svg" xmlns:xlink="http://www.w3.org/1999/xlink" id="Layer_1" x="0" y="0" version="1.1" viewBox="0 0 512 512" xml:space="preserve" style="enable-background:new 0 0 512 512"><style type="text/css">.st0{fill:#44004e}</style><g id="Layer_2_1_"><path d="M256,21.3C126.4,21.3,21.3,126.4,21.3,256S126.4,490.7,256,490.7S490.7,385.6,490.7,256 C490.5,126.5,385.5,21.5,256,21.3z M362.7,277.3h-85.3v85.3c0,11.8-9.6,21.3-21.3,21.3c-11.8,0-21.3-9.6-21.3-21.3v-85.3h-85.3 c-11.8,0-21.3-9.6-21.3-21.3c0-11.8,9.6-21.3,21.3-21.3h85.3v-85.3c0-11.8,9.6-21.3,21.3-21.3c11.8,0,21.3,9.6,21.3,21.3v85.3h85.3 c11.8,0,21.3,9.6,21.3,21.3C384,267.8,374.4,277.3,362.7,277.3z" class="st0"/></g></svg>