<svg xmlns="http://www.w3.org/2000/svg" xmlns:xlink="http://www.w3.org/1999/xlink" id="Capa_1" x="0" y="0" version="1.1" viewBox="0 0 426.7 426.7" xml:space="preserve" style="enable-background:new 0 0 426.7 426.7"><style type="text/css">.st0{fill:#44004e}</style><g><g><path d="M414.1,204.4L222.2,12.5C214.4,4.8,203.7,0,192,0H42.7C19.1,0,0,19.1,0,42.7V192c0,11.8,4.8,22.5,12.6,30.2 l192,192c7.7,7.7,18.3,12.5,30.1,12.5s22.5-4.8,30.2-12.5l149.3-149.3c7.7-7.8,12.5-18.5,12.5-30.2 C426.7,222.8,421.9,212.2,414.1,204.4z M74.7,106.7c-17.7,0-32-14.3-32-32s14.3-32,32-32s32,14.3,32,32S92.4,106.7,74.7,106.7z" class="st0"/></g></g></svg>