<svg xmlns="http://www.w3.org/2000/svg" xmlns:xlink="http://www.w3.org/1999/xlink" id="Layer_1" x="0" y="0" version="1.1" viewBox="0 0 512 512" xml:space="preserve" style="enable-background:new 0 0 512 512"><style type="text/css">.st0{fill:#44004e}</style><circle cx="42.7" cy="85.3" r="42.7" class="st0"/><circle cx="42.7" cy="256" r="42.7" class="st0"/><circle cx="42.7" cy="426.7" r="42.7" class="st0"/><path d="M170.7,106.7h320c11.8,0,21.3-9.5,21.3-21.3S502.5,64,490.7,64h-320c-11.8,0-21.3,9.5-21.3,21.3	S158.9,106.7,170.7,106.7z" class="st0"/><path d="M490.7,234.7h-320c-11.8,0-21.3,9.5-21.3,21.3c0,11.8,9.5,21.3,21.3,21.3h320c11.8,0,21.3-9.5,21.3-21.3	C512,244.2,502.5,234.7,490.7,234.7z" class="st0"/><path d="M490.7,405.3h-320c-11.8,0-21.3,9.5-21.3,21.3c0,11.8,9.5,21.3,21.3,21.3h320c11.8,0,21.3-9.5,21.3-21.3	C512,414.9,502.5,405.3,490.7,405.3z" class="st0"/></svg>