<svg xmlns="http://www.w3.org/2000/svg" xmlns:xlink="http://www.w3.org/1999/xlink" id="Layer_1" x="0" y="0" version="1.1" viewBox="0 0 841.89 595.28" xml:space="preserve" style="enable-background:new 0 0 841.89 595.28"><style type="text/css">.st0{fill:#44004e}.st1{fill:url(#SVGID_1_)}.st2{fill:url(#SVGID_2_)}.st3{fill:url(#SVGID_3_)}</style><switch><g><path d="M523.07,377.81h-3.85v-25.7h14.47v3.31h-10.62v8.39H533v3.31h-9.94v10.69H523.07z" class="st0"/><path d="M546.75,358.05c0.77,0,1.47,0.06,2.12,0.18l-0.4,3.56c-0.62-0.17-1.27-0.25-1.94-0.25 c-0.98,0-1.9,0.24-2.74,0.72s-1.52,1.17-2.03,2.07c-0.52,0.9-0.78,1.99-0.78,3.26v10.22h-3.81v-19.4h3.02l0.5,3.46h0.14 c0.6-1.03,1.4-1.93,2.41-2.68S545.43,358.05,546.75,358.05z" class="st0"/><path d="M568.24,368.09c0,3.22-0.83,5.7-2.48,7.45c-1.65,1.75-3.89,2.63-6.7,2.63c-1.75,0-3.31-0.39-4.66-1.17 c-1.36-0.78-2.42-1.92-3.2-3.42s-1.17-3.33-1.17-5.49c0-3.22,0.81-5.69,2.45-7.43c1.63-1.74,3.86-2.61,6.7-2.61 c1.78,0,3.34,0.39,4.7,1.17s2.42,1.91,3.2,3.4C567.85,364.11,568.24,365.93,568.24,368.09z M553.95,368.09 c0,2.18,0.41,3.89,1.24,5.11c0.83,1.22,2.14,1.84,3.94,1.84s3.11-0.61,3.94-1.84c0.83-1.22,1.24-2.93,1.24-5.11 c0-2.21-0.41-3.91-1.24-5.09c-0.83-1.19-2.15-1.78-3.98-1.78c-1.8,0-3.11,0.59-3.93,1.78 C554.36,364.19,553.95,365.88,553.95,368.09z" class="st0"/><path d="M594.2,358.05c2.18,0,3.83,0.56,4.93,1.69s1.66,2.94,1.66,5.44v12.64h-3.82v-12.13c0-3-1.21-4.5-3.64-4.5 c-1.73,0-2.96,0.53-3.71,1.6c-0.74,1.07-1.12,2.6-1.12,4.59v10.44h-3.78v-12.13c0-3-1.22-4.5-3.67-4.5 c-1.82,0-3.08,0.59-3.76,1.76c-0.68,1.18-1.03,2.87-1.03,5.08v9.79h-3.81v-19.4h3.02l0.54,2.59h0.22c0.6-1.01,1.41-1.75,2.43-2.23 s2.11-0.72,3.26-0.72c2.98,0,4.94,1.04,5.9,3.13h0.29c0.62-1.06,1.49-1.84,2.59-2.36C591.81,358.31,592.98,358.05,594.2,358.05z" class="st0"/><path d="M636.28,377.81h-4.71l-13-20.77h-0.14c0.05,0.96,0.1,2.06,0.16,3.29s0.1,2.5,0.13,3.8v13.68h-3.53v-25.7h4.68 l12.96,20.66h0.11c-0.02-0.5-0.05-1.14-0.09-1.91c-0.04-0.77-0.07-1.59-0.09-2.47s-0.05-1.7-0.07-2.47V352.1h3.6L636.28,377.81 L636.28,377.81z" class="st0"/><path d="M656.98,377.81h-14.47v-25.7h14.47v3.31H646.4v7.34h9.94v3.28h-9.94v8.42h10.58L656.98,377.81L656.98,377.81z" class="st0"/><path d="M673.15,377.81l-7.78-21.85h-0.14c0.05,0.5,0.09,1.16,0.13,1.96s0.06,1.68,0.09,2.63 c0.02,0.95,0.04,1.87,0.04,2.75v14.51h-3.53v-25.7h5.54l7.38,20.63h0.14l7.6-20.63h5.54v25.7h-3.78v-14.72 c0-0.84,0.02-1.7,0.05-2.59c0.04-0.89,0.07-1.73,0.11-2.52c0.04-0.79,0.07-1.45,0.09-1.98h-0.14l-7.99,21.82h-3.35V377.81z" class="st0"/><g><path d="M670.65,326.73c-17.57,0-26.85-10.29-26.85-29.76v-75.98c0-1.44,0.95-2.72,2.32-3.12 c1.97-0.58,5.26-1.26,9.76-1.26c4.45,0,7.67,0.67,9.58,1.24c1.4,0.42,2.35,1.67,2.35,3.12v78.62c0,3.19,0.83,5.34,2.47,6.4 c2.97,1.92,8.1-0.04,10.17-0.98c1.34-0.61,2.93-0.22,3.87,0.95c0.95,1.19,2.37,3.14,3.76,5.68c1.41,2.59,2.33,4.95,2.86,6.46l0,0 c0.5,1.47-0.1,3.09-1.45,3.86C686.38,323.74,679.81,326.73,670.65,326.73z" class="st0"/><path d="M440.64,326.08c-4.45,0-7.67-0.67-9.58-1.24c-1.4-0.42-2.35-1.67-2.35-3.12v-39.97 c0-4.18-0.92-7.44-2.73-9.69c-1.8-2.23-4.44-3.31-8.09-3.31c-4.19,0-7.43,1.4-9.9,4.27s-3.73,6.59-3.73,11.08v37.67 c0,1.44-0.97,2.73-2.37,3.13c-1.89,0.54-5.04,1.19-9.32,1.19c-4.26,0-7.35-0.64-9.19-1.18c-1.4-0.41-2.35-1.66-2.35-3.12v-40.03 c0-4.18-0.92-7.44-2.73-9.69c-1.79-2.23-4.44-3.31-8.09-3.31c-4.08,0-7.3,1.4-9.83,4.28c-2.52,2.87-3.8,6.59-3.8,11.07v37.61 c0,1.44-0.95,2.72-2.32,3.12c-1.97,0.58-5.26,1.26-9.76,1.26c-4.45,0-7.67-0.67-9.58-1.24c-1.4-0.42-2.35-1.67-2.35-3.12v-69.73 c0-1.48,0.99-2.77,2.4-3.14c1.56-0.41,4.14-0.9,7.53-0.9c4.07,0,6.75,0.71,8,1.13c0.78,0.26,1.42,0.8,1.81,1.52l3.49,6.38 c2.23-2.51,5.01-4.66,8.27-6.38c3.63-1.92,7.96-2.9,12.85-2.9c2.97,0,5.66,0.32,8.01,0.96c2.34,0.64,4.42,1.48,6.19,2.5 c1.75,1.01,3.32,2.15,4.67,3.38c1.07,0.99,1.99,1.96,2.76,2.92c2.96-2.99,6.55-5.36,10.67-7.05c4.4-1.8,9.04-2.71,13.8-2.71 c9.55,0,16.96,2.76,22.04,8.21c5.06,5.44,7.62,12.92,7.62,22.24v43.55c0,1.44-0.95,2.72-2.32,3.12 C448.43,325.39,445.14,326.08,440.64,326.08z" class="st0"/><path d="M592.73,326.73c-26.07,0-40.13-20.6-40.13-39.98c0-10.44,3.77-20.24,10.63-27.6 c7.45-8,17.66-12.23,29.51-12.23s22.03,4.22,29.43,12.2c6.8,7.33,10.55,17.14,10.55,27.63 C632.71,306.13,618.7,326.73,592.73,326.73z M592.73,267.96c-11.62,0-16.91,9.74-16.91,18.79c0,12.3,8.71,18.94,16.91,18.94 c10.49,0,16.76-9.63,16.76-18.94C609.49,277.41,603.73,267.96,592.73,267.96z" class="st0"/><path d="M194.34,326.88c-5.24,0-10.08-0.51-14.39-1.5c-4.32-1-8.26-2.33-11.72-3.96c-3.48-1.63-6.65-3.52-9.43-5.63 c-2.22-1.67-4.21-3.4-5.93-5.14c-1.03-1.04-1.24-2.6-0.54-3.87c1.1-1.97,2.98-4.97,5.74-8.03c2.67-2.97,5.32-4.91,7.08-6.01 c1.27-0.8,2.91-0.61,3.98,0.45c1.02,1.01,2.17,2.04,3.42,3.07c1.77,1.47,3.79,2.84,5.98,4.06c2.18,1.22,4.6,2.22,7.19,2.98 c2.57,0.76,5.37,1.14,8.31,1.14c1.7,0,3.42-0.25,5.1-0.75c1.68-0.49,3.24-1.22,4.64-2.17c1.37-0.93,2.48-2.06,3.3-3.37 c0.82-1.3,1.21-2.73,1.21-4.37c0-3.6-1.72-6.32-5.25-8.33c-3.67-2.09-9.61-4.2-17.63-6.26c-4-0.95-7.76-2.34-11.18-4.13 c-3.44-1.8-6.45-4-8.94-6.55c-2.51-2.56-4.48-5.53-5.86-8.83c-1.39-3.31-2.09-7.03-2.09-11.08c0-4.45,0.81-8.7,2.4-12.63 c1.6-3.94,4.05-7.48,7.3-10.5c3.23-3.03,7.32-5.44,12.13-7.19c4.8-1.74,10.54-2.62,17.06-2.62c20.39,0,34.78,12.95,34.92,13.08 c1.03,0.97,1.32,2.47,0.71,3.75c-0.72,1.52-2.11,3.95-4.6,6.9c-2.65,3.15-5.31,4.99-7.08,5.98c-1.14,0.64-2.55,0.54-3.58-0.27 c-0.84-0.65-1.76-1.34-2.76-2.07c-1.47-1.07-3.14-2.07-4.98-2.99c-1.83-0.91-3.86-1.68-6.04-2.29c-2.17-0.6-4.49-0.91-6.91-0.91 c-1.58,0-3.16,0.25-4.69,0.75c-1.54,0.5-2.95,1.18-4.18,2.02c-1.21,0.82-2.19,1.8-2.92,2.92c-0.7,1.07-1.05,2.22-1.05,3.42 c0,3.29,1.72,5.89,5.26,7.95c3.67,2.14,8.8,3.95,15.26,5.39c3.89,0.95,7.74,2.25,11.47,3.87c3.75,1.64,7.16,3.82,10.12,6.46 c2.98,2.66,5.41,5.98,7.21,9.86c1.81,3.89,2.73,8.65,2.73,14.15c0,4.79-1.08,9.27-3.21,13.32c-2.12,4.03-5.05,7.58-8.71,10.55 c-3.65,2.96-7.99,5.29-12.9,6.93C205.38,326.05,200.02,326.88,194.34,326.88z" class="st0"/><path d="M501.92,326.64c-14.75,0-27.51-2.95-32.31-4.21c-1.42-0.38-2.42-1.67-2.42-3.14V220.9 c0-1.44,0.95-2.72,2.32-3.12c1.97-0.58,5.26-1.26,9.76-1.26c4.45,0,7.67,0.67,9.58,1.24c1.4,0.41,2.35,1.67,2.35,3.12v32.97 c2.55-2.09,8.7-6.09,18.47-6.09c19.99,0,33.42,15.12,33.42,37.64C543.09,309.68,526.16,326.64,501.92,326.64z M491.2,305.03 c1.66,0.5,6.05,1.34,9.72,1.34c8.71,0,18.01-5.3,18.01-20.19c0-13.06-7.43-17.69-13.79-17.69c-6.36,0-13.94,2.5-13.94,14.41 L491.2,305.03L491.2,305.03z" class="st0"/><g><g><linearGradient id="SVGID_1_" x1="291.823" x2="264.627" y1="273.166" y2="315.043" gradientTransform="matrix(1 0 0 -1 0 595.2756)" gradientUnits="userSpaceOnUse"><stop offset="0" style="stop-color:#44004e"/><stop offset=".073" style="stop-color:#480052"/><stop offset=".151" style="stop-color:#55005e"/><stop offset=".231" style="stop-color:#6b0073"/><stop offset=".314" style="stop-color:#89008f"/><stop offset=".397" style="stop-color:#af00b4"/><stop offset=".48" style="stop-color:#de00e0"/><stop offset=".532" style="stop-color:#f0f"/></linearGradient><path d="M291.95,322.03l-23.64,0.39v-36.63l11.52-15.43l12.12,15.43V322.03z" class="st1"/><linearGradient id="SVGID_2_" x1="310.354" x2="288.663" y1="347.509" y2="303.035" gradientTransform="matrix(1 0 0 -1 0 595.2756)" gradientUnits="userSpaceOnUse"><stop offset="0" style="stop-color:#44004e"/><stop offset=".073" style="stop-color:#480052"/><stop offset=".151" style="stop-color:#55005e"/><stop offset=".231" style="stop-color:#6b0073"/><stop offset=".314" style="stop-color:#89008f"/><stop offset=".397" style="stop-color:#af00b4"/><stop offset=".48" style="stop-color:#de00e0"/><stop offset=".532" style="stop-color:#f0f"/></linearGradient><path d="M291.05,286.27l-19.12-2.19l7.32-18.18l0.22-0.13l31.07-17.91l12.23,20.09L291.05,286.27z" class="st2"/><linearGradient id="SVGID_3_" x1="236.968" x2="286.639" y1="326.341" y2="329.379" gradientTransform="matrix(1 0 0 -1 0 595.2756)" gradientUnits="userSpaceOnUse"><stop offset="0" style="stop-color:#44004e"/><stop offset=".073" style="stop-color:#480052"/><stop offset=".151" style="stop-color:#55005e"/><stop offset=".231" style="stop-color:#6b0073"/><stop offset=".314" style="stop-color:#89008f"/><stop offset=".397" style="stop-color:#af00b4"/><stop offset=".48" style="stop-color:#de00e0"/><stop offset=".532" style="stop-color:#f0f"/></linearGradient><path d="M268.34,286.83l-31.38-18.11l11.47-20.3l31.82,18.55l7.5,17.09L268.34,286.83z" class="st3"/></g><path d="M279.83,326.08c-4.37,0-7.71-0.69-9.75-1.27c-1.38-0.39-2.34-1.68-2.34-3.12l-0.01-35.63 c-0.06-5.21-2.2-9.64-6.18-12.82c-5.47-4.35-13.99-5.94-22.22-4.14c-1.18,0.26-2.36-0.13-3.15-1.04s-1.01-2.13-0.59-3.26 c0.94-2.52,2.14-5.51,3.91-8.57c2.19-3.79,4.46-6.33,5.98-7.8c1.03-1,2.63-1.19,3.88-0.47l30.07,17.36l0.81,0.47 c4.6,2.55,9.47,2.9,14.19,1.04c6.5-2.56,12.13-9.14,14.7-17.17c0.37-1.15,1.29-1.98,2.48-2.21c1.18-0.23,2.35,0.19,3.12,1.12 c1.71,2.07,3.7,4.61,5.47,7.67c2.19,3.79,3.26,7.03,3.77,9.08l0,0c0.35,1.39-0.28,2.87-1.53,3.59l-30.25,17.47l-0.82,0.48 c-4.39,2.67-7.09,6.74-7.81,11.75c-0.99,6.88,1.9,15,7.54,21.2c0.81,0.9,1.06,2.11,0.67,3.25s-1.34,1.94-2.53,2.14 C286.55,325.62,283.36,326.08,279.83,326.08z" class="st0"/></g></g></g></switch></svg>